<?xml version="1.0" standalone="no"?>
<!DOCTYPE svg PUBLIC "-//W3C//DTD SVG 20010904//EN"
 "http://www.w3.org/TR/2001/REC-SVG-20010904/DTD/svg10.dtd">
<svg version="1.0" xmlns="http://www.w3.org/2000/svg"
 width="520.000000pt" height="520.000000pt" viewBox="0 0 520.000000 520.000000"
 preserveAspectRatio="xMidYMid meet">
<metadata>
Created by potrace 1.11, written by Peter Selinger 2001-2013
</metadata>
<g transform="translate(0.000000,520.000000) scale(0.100000,-0.100000)"
fill="#000000" stroke="none">
<path d="M3205 4793 c-28 -7 -1673 -954 -1765 -1016 -362 -241 -640 -628 -754
-1047 -208 -769 97 -1582 759 -2025 327 -219 711 -328 1105 -312 332 13 651
114 940 297 112 71 167 115 185 150 34 65 9 166 -56 227 -43 40 -77 53 -140
53 -55 0 -94 -17 -202 -86 -152 -98 -353 -177 -537 -211 -127 -23 -371 -23
-497 0 -529 97 -959 467 -1127 967 -52 155 -69 271 -69 455 0 249 38 416 147
640 98 200 247 381 424 512 46 34 460 278 920 543 615 354 847 492 874 521
112 121 32 322 -133 334 -29 2 -63 1 -74 -2z"/>
<path d="M4315 4481 c-70 -32 -2377 -1361 -2440 -1406 -220 -157 -372 -404
-415 -677 -18 -108 -8 -311 19 -413 46 -171 170 -379 293 -492 313 -286 762
-359 1133 -184 78 37 922 518 997 568 46 31 88 111 88 167 -1 144 -156 246
-285 187 -22 -10 -245 -136 -495 -280 -303 -175 -480 -271 -530 -288 -145 -49
-317 -39 -454 25 -389 184 -479 691 -176 992 74 73 105 92 1260 755 651 374
1200 693 1219 710 19 16 42 48 52 70 75 164 -102 341 -266 266z"/>
</g>
</svg>
